# xmcd
#
# Track frame offsets:
#	150
#	22125
#	42525
#	59925
#	80100
#	100500
#	122025
#	141450
#	154050
#	173175
#	188250
#	210225
#	222900
#	239925
#	262575
#	287025
#	306000
#	324150
#
# Disc length: 4603 seconds
#
# Revision: 1
# Processed by: cddbd v1.5PL3 Copyright (c) Steve Scherf et al.
# Submitted via: CDex 1.50Beta5
#
DISCID=0811f912
DTITLE=山崎まさよし - 山崎まさよし Complete Singles
DYEAR=1900
DGENRE=Blues
TTITLE0=明日の風
TTITLE1=カタログ
TTITLE2=やわらかい月
TTITLE3=ヌイチャイナ シンドローム
TTITLE4=Passage
TTITLE5=江古田
TTITLE6=僕はここにいる
TTITLE7=お家へ帰ろう
TTITLE8=水のない水槽
TTITLE9=ドレッシング
TTITLE10=振り向かない
TTITLE11=ガムシャラ バタフライ
TTITLE12=アドレナリン
TTITLE13=レイン ソング
TTITLE14=One More Time, One More Chance
TTITLE15=セロリ
TTITLE16=中華料理
TTITLE17=月明かりに照らされて
EXTD=
EXTT0=
EXTT1=
EXTT2=
EXTT3=
EXTT4=
EXTT5=
EXTT6=
EXTT7=
EXTT8=
EXTT9=
EXTT10=
EXTT11=
EXTT12=
EXTT13=
EXTT14=
EXTT15=
EXTT16=
EXTT17=
PLAYORDER=
